<?xml version="1.0" encoding="UTF-8" standalone="no"?>
<!DOCTYPE svg PUBLIC "-//W3C//DTD SVG 1.1//EN"
 "http://www.w3.org/Graphics/SVG/1.1/DTD/svg11.dtd">
<!-- Generated by graphviz version 2.38.0 (20140413.2041)
 -->
<!-- Title: G Pages: 1 -->
<svg width="198pt" height="582pt"
 viewBox="0.00 0.00 198.00 582.00" xmlns="http://www.w3.org/2000/svg" xmlns:xlink="http://www.w3.org/1999/xlink">
<g id="graph0" class="graph" transform="scale(1 1) rotate(0) translate(4 578)">
<title>G</title>
<polygon fill="white" stroke="none" points="-4,4 -4,-578 194,-578 194,4 -4,4"/>
<g id="clust1" class="cluster"><title>cluster_Global</title>
<path fill="none" stroke="gray" d="M20,-8C20,-8 170,-8 170,-8 176,-8 182,-14 182,-20 182,-20 182,-554 182,-554 182,-560 176,-566 170,-566 170,-566 20,-566 20,-566 14,-566 8,-560 8,-554 8,-554 8,-20 8,-20 8,-14 14,-8 20,-8"/>
<text text-anchor="middle" x="95" y="-553.2" font-family="Times New Roman,serif" font-size="11.00" fill="gray">Global</text>
</g>
<!-- \\validacionFormularios -->
<g id="node1" class="node"><title>\\validacionFormularios</title>
<polygon fill="none" stroke="black" points="174,-538 16,-538 16,-502 174,-502 174,-538"/>
<text text-anchor="middle" x="95" y="-517.2" font-family="Courier,monospace" font-size="11.00">validacionFormularios</text>
</g>
<!-- \\DBPDO -->
<g id="node2" class="node"><title>\\DBPDO</title>
<polygon fill="none" stroke="black" points="122,-484 68,-484 68,-448 122,-448 122,-484"/>
<text text-anchor="middle" x="95" y="-463.2" font-family="Courier,monospace" font-size="11.00">DBPDO</text>
</g>
<!-- \\Departamento -->
<g id="node3" class="node"><title>\\Departamento</title>
<polygon fill="none" stroke="black" points="144,-430 46,-430 46,-394 144,-394 144,-430"/>
<text text-anchor="middle" x="95" y="-409.2" font-family="Courier,monospace" font-size="11.00">Departamento</text>
</g>
<!-- \\DepartamentoPDO -->
<g id="node4" class="node"><title>\\DepartamentoPDO</title>
<polygon fill="none" stroke="black" points="154,-376 36,-376 36,-340 154,-340 154,-376"/>
<text text-anchor="middle" x="95" y="-355.2" font-family="Courier,monospace" font-size="11.00">DepartamentoPDO</text>
</g>
<!-- \\ProvinciaPDO -->
<g id="node5" class="node"><title>\\ProvinciaPDO</title>
<polygon fill="none" stroke="black" points="144,-322 46,-322 46,-286 144,-286 144,-322"/>
<text text-anchor="middle" x="95" y="-301.2" font-family="Courier,monospace" font-size="11.00">ProvinciaPDO</text>
</g>
<!-- \\Rest -->
<g id="node6" class="node"><title>\\Rest</title>
<polygon fill="none" stroke="black" points="122,-268 68,-268 68,-232 122,-232 122,-268"/>
<text text-anchor="middle" x="95" y="-247.2" font-family="Courier,monospace" font-size="11.00">Rest</text>
</g>
<!-- \\Usuario -->
<g id="node7" class="node"><title>\\Usuario</title>
<polygon fill="none" stroke="black" points="127,-214 63,-214 63,-178 127,-178 127,-214"/>
<text text-anchor="middle" x="95" y="-193.2" font-family="Courier,monospace" font-size="11.00">Usuario</text>
</g>
<!-- \\UsuarioPDO -->
<g id="node8" class="node"><title>\\UsuarioPDO</title>
<polygon fill="none" stroke="black" points="137,-160 53,-160 53,-124 137,-124 137,-160"/>
<text text-anchor="middle" x="95" y="-139.2" font-family="Courier,monospace" font-size="11.00">UsuarioPDO</text>
</g>
<!-- \\WSRest -->
<g id="node9" class="node"><title>\\WSRest</title>
<polygon fill="none" stroke="black" points="123.5,-106 66.5,-106 66.5,-70 123.5,-70 123.5,-106"/>
<text text-anchor="middle" x="95" y="-85.2" font-family="Courier,monospace" font-size="11.00">WSRest</text>
</g>
<!-- \\UsuarioDB -->
<g id="node10" class="node"><title>\\UsuarioDB</title>
<polygon fill="none" stroke="black" points="133.5,-52 56.5,-52 56.5,-16 133.5,-16 133.5,-52"/>
<text text-anchor="middle" x="95" y="-31.2" font-family="Courier,monospace" font-size="11.00">UsuarioDB</text>
</g>
</g>
</svg>
